# xmcd
#
# Track frame offsets: 
#        150
#        19500
#        35760
#        103460
#        141872
#        195915
#
# Disc length: 3129 seconds
#
# Revision: 6
# Processed by: cddbd v1.5.2PL0 Copyright (c) Steve Scherf et al.
# Submitted via: ExactAudioCopy v0.95b4
#
DISCID=4d0c3706
DTITLE=Sergiu Celibidache and SWR Stuttgart Radio Symphony Orchestra - R
DTITLE=Strauss - Ein Heldenleben
DYEAR=1979
DGENRE=Classical
TTITLE0=Ein Heldenleben, op.40 - Der Herd
TTITLE1=Ein Heldenleben, op.40 - Des Helden Widersacher
TTITLE2=Ein Heldenleben, op.40 - Des Helden Gefahrtin
TTITLE3=Ein Heldenleben, op.40 - Des Helden Walstatt
TTITLE4=Ein Heldenleben, op.40 - Des Helden Friedenswerke
TTITLE5=Ein Heldenleben, op.40 - Des Helden Weltflucht und Vollendung
EXTD=
EXTT0=
EXTT1=
EXTT2=
EXTT3=
EXTT4=
EXTT5=
PLAYORDER=
